# xmcd
#
# Track frame offsets: 
#        150
#        17125
#        32445
#        55605
#        72120
#        90780
#        115780
#        145985
#        167560
#        182195
#        205100
#        220890
#        235390
#        249020
#        274175
#        305675
#        318190
#
# Disc length: 4456 seconds
#
# Revision: 0
# Processed by: cddbd v1.5.2PL0 Copyright (c) Steve Scherf et al.
# Submitted via: ExactAudioCopy v0.99pb4
#
DISCID=de116611
DTITLE=Emmylou Harris and Linda Rondstadt - Emmylou Harris and Linda Ronds
DTITLE=tadt - Austin, TX, Oct. 10 1999 - Disc 2
DYEAR=1900
DGENRE=Country
TTITLE0=Hello stranger
TTITLE1=He was mine
TTITLE2=Sweet spot
TTITLE3=Western wall
TTITLE4=It doesn't matter anymore
TTITLE5=When we ran
TTITLE6=Pancho and Lefty
TTITLE7=Sisters of mercy
TTITLE8=Falling down
TTITLE9=Going back to Harlan
TTITLE10=Heart like a wheel
TTITLE11=introductions 
TTITLE12=Wheels
TTITLE13=Born to run
TTITLE14=Feels like home
TTITLE15=The sweetest gift
TTITLE16=(Talk to me of) Mendocino 
EXTD=
EXTT0=
EXTT1=
EXTT2=
EXTT3=
EXTT4=
EXTT5=
EXTT6=
EXTT7=
EXTT8=
EXTT9=
EXTT10=
EXTT11=
EXTT12=
EXTT13=
EXTT14=
EXTT15=
EXTT16=
PLAYORDER=
